<svg width="139" height="28" viewBox="0 0 139 28" fill="none" xmlns="http://www.w3.org/2000/svg">
<g clip-path="url(#clip0_46_5)">
<mask id="mask0_46_5" style="mask-type:luminance" maskUnits="userSpaceOnUse" x="0" y="0" width="139" height="28">
<path d="M139 0H0V28H139V0Z" fill="white"/>
</mask>
<g mask="url(#mask0_46_5)">
<path d="M30.2001 5.60001H45.0001L30.2001 23.5V26.9H33.4001H52.4001V22H38.0001L52.3001 4.70001V0.700012H30.2001V5.60001Z" fill="black"/>
<path d="M58.1001 0.599976H54.2001V26.8H54.5001H73.2001V21.9H60.0001V15H72.8001V10.7H60.0001V5.59998H73.3001V0.599976H58.1001Z" fill="black"/>
<path d="M88.3 0.599976H82.5H75V5.49998H82.5V26.8H88.3V5.59998H95.8V0.699976L88.3 0.599976Z" fill="black"/>
<path d="M101.3 0.599976H97.4V26.8H97.7H116.4V21.9H103.1V15H116V10.7H103.2V5.59998H116.5V0.599976H101.3Z" fill="black"/>
<path d="M137.6 4.99998C136.7 3.59998 135.4 2.49998 133.7 1.69998C132.1 0.999976 130.2 0.599976 128.2 0.599976H122H118.3V26.8H124.1V19.7H128.2C130.2 19.7 132 19.3 133.7 18.5C135.3 17.7 136.6 16.6 137.6 15.1C138.5 13.6 139 11.9 139 9.89997C139 8.09997 138.5 6.39998 137.6 4.99998ZM132.1 13.9C131.2 14.8 129.5 15.3 127.2 15.3H124.1V5.19998H127.2C129.5 5.19998 131.1 5.59998 132.1 6.39998C133 7.19998 133.5 8.39998 133.5 9.99998C133.5 11.7 133 13 132.1 13.9Z" fill="black"/>
<path d="M27.6 14C27.6 6.3 21.5 0 13.9 0C6.40005 0 0.300049 6.3 0.300049 14C0.300049 16.7 1.10005 19.4 2.50005 21.7C4.00005 24 6.00005 25.8 8.50005 26.9C8.70005 26.2 8.80005 25.3 8.80005 24.2C8.10005 23.8 7.60005 23.3 7.20005 22.7C6.80005 22 6.50005 21.2 6.60005 20.4C6.60005 19.4 6.90005 18.5 7.50005 17.5C6.80005 17.3 6.20005 17 5.60005 16.5C5.10005 16 4.80005 15.5 4.80005 14.9C4.80005 14.2 5.10005 13.4 5.60005 12.7C6.00005 12 6.70005 11.3 7.50005 10.8C8.40005 10.2 9.40005 9.8 10.4 9.6C10.9 8.7 11.5 7.7 12.4 6.6C13.3 5.5 14.3 4.6 15.3 3.7C16.4 2.8 17.4 2.2 18.3 1.8C18.3 2.6 18.2 3.3 18.1 4.1C18 4.4 18 4.7 17.9 5C18.1 4.9 18.4 4.7 18.6 4.6C19.9 3.9 20.8 3.6 21.4 3.6C21.5 4.3 21.2001 5.3 20.7001 6.5C20.1001 7.8 19.4 9.1 18.5 10.3C17.5 11.5 16.5 12.5 15.3 13.1C15.4 13.5 15.4 14 15.4 14.5C15.4 15.2 15.3 15.8 15.2 16.5C16.4 17.1 17.4001 18.2 18.2001 19.6C19.1001 21 19.5 22.8 19.5 24.8C19.5 25.5 19.5 26.2 19.3 26.9C21.7 25.8 23.8001 24 25.2001 21.7C26.8001 19.4 27.6 16.7 27.6 14Z" fill="black"/>
<path d="M20.7 4.40002C20.5 5.20002 20.2 6.10002 19.7 7.20002C19.2 8.30002 18.5 9.30002 17.7 10.2C17 11.1 16.1 11.8 15.2 12.4C15.2 12.3 15.1 12.2 15 12.1C14.6 11.4 14.1 10.8 13.3 10.2C13.8 9.40002 14.6 8.50002 15.5 7.70002C16.2 7.10002 17 6.50002 17.8 6.00002C18 5.90002 18.1 5.80002 18.3 5.70002C19.2 5.00002 20 4.60002 20.7 4.40002Z" fill="black"/>
<path d="M12.6001 24.5C12.3001 25.1 12.1001 25.8 12.1001 26.5C12.1001 27 12.2001 27.4 12.3001 27.9C12.6001 27.9 12.8001 28 13.1001 28C12.9001 27.5 12.8001 27 12.8001 26.5C12.8001 25.6 13.1001 24.9 13.6001 24.2C14.1001 23.6 14.8001 23.2 15.5001 23.2V22.5C14.9001 22.5 14.3001 22.7 13.8001 23.1C13.3001 23.5 12.9001 24 12.6001 24.5Z" fill="black"/>
<path d="M11 12.3C11.1 12.4 11.1 12.5 11.2 12.5C11.2 12.6 11.3 12.7 11.2 12.8C11.2 13 11.1 13.2 11 13.3C10.9 13.4 10.9 13.4 10.8 13.5C10.6 13.6 10.4 13.6 10.2 13.5C10.1 13.5 10 13.4 10 13.3C9.90005 13.1 9.80005 12.9 9.80005 12.7C9.80005 12.6 9.80005 12.5 9.90005 12.4C9.90005 12.3 10 12.2 10.1 12.2C10.2 12.1 10.4 12 10.6 12C10.7 12 10.8 12 10.9 12C10.9 12.2 10.9 12.2 11 12.3Z" fill="black"/>
</g>
</g>
<defs>
<clipPath id="clip0_46_5">
<rect width="139" height="28" fill="white"/>
</clipPath>
</defs>
</svg>
